<svg width="20" height="20" viewBox="0 0 20 20" fill="none" xmlns="http://www.w3.org/2000/svg">
<path d="M10.625 4.17094C10.6259 3.83763 10.5603 3.50749 10.4318 3.19994C10.3033 2.89239 10.1146 2.61363 9.87685 2.38006C9.63907 2.14649 9.35698 1.96283 9.04717 1.83988C8.73737 1.71693 8.40611 1.65717 8.07287 1.66412C7.73964 1.67106 7.41115 1.74457 7.10674 1.88033C6.80233 2.01608 6.52814 2.21134 6.30029 2.45461C6.07245 2.69788 5.89555 2.98426 5.78 3.2969C5.66445 3.60954 5.61259 3.94213 5.62746 4.27511C5.13763 4.40105 4.68288 4.63682 4.29765 4.96453C3.91243 5.29225 3.60683 5.70333 3.404 6.16665C3.20117 6.62996 3.10643 7.13335 3.12695 7.6387C3.14748 8.14405 3.28273 8.6381 3.52246 9.08344C3.10094 9.42588 2.76948 9.86613 2.55691 10.3659C2.34434 10.8656 2.25709 11.4098 2.30276 11.9509C2.34844 12.4921 2.52564 13.0139 2.81896 13.471C3.11229 13.928 3.51285 14.3065 3.98579 14.5734C3.92739 15.0253 3.96224 15.4843 4.0882 15.9222C4.21416 16.3601 4.42854 16.7675 4.71811 17.1192C5.00769 17.471 5.3663 17.7597 5.77181 17.9674C6.17732 18.1751 6.62111 18.2975 7.07577 18.3271C7.53044 18.3566 7.98633 18.2925 8.41528 18.1389C8.84424 17.9854 9.23715 17.7455 9.56976 17.4341C9.90237 17.1227 10.1676 16.7464 10.3491 16.3285C10.5306 15.9106 10.6245 15.4599 10.625 15.0043V4.17094Z" stroke="white" stroke-width="1.25" stroke-linecap="round" stroke-linejoin="round"/>
<path d="M8.12488 10.8375C8.82451 10.5914 9.43545 10.1433 9.88044 9.54999C10.3254 8.95666 10.5845 8.24471 10.6249 7.50415" stroke="white" stroke-width="1.25" stroke-linecap="round" stroke-linejoin="round"/>
<path d="M3.52246 9.08415C3.67491 8.95999 3.83805 8.84956 4.00996 8.75415" stroke="white" stroke-width="1.25" stroke-linecap="round" stroke-linejoin="round"/>
<path d="M5.62488 15.0041C5.05058 15.0044 4.48594 14.8562 3.98572 14.5741" stroke="white" stroke-width="1.25" stroke-linecap="round" stroke-linejoin="round"/>
<path d="M10.6249 10.8375H13.9582" stroke="white" stroke-width="1.25" stroke-linecap="round" stroke-linejoin="round"/>
<path d="M10.6249 15.0042H15.6249C16.0669 15.0042 16.4908 15.1797 16.8034 15.4923C17.1159 15.8049 17.2915 16.2288 17.2915 16.6708V17.5042" stroke="white" stroke-width="1.25" stroke-linecap="round" stroke-linejoin="round"/>
<path d="M10.6249 6.6709H17.2915" stroke="white" stroke-width="1.25" stroke-linecap="round" stroke-linejoin="round"/>
<path d="M13.9583 6.67082V4.17082C13.9583 3.72879 14.1338 3.30487 14.4464 2.99231C14.759 2.67975 15.1829 2.50415 15.6249 2.50415" stroke="white" stroke-width="1.25" stroke-linecap="round" stroke-linejoin="round"/>
<path d="M13.9582 11.2542C14.1884 11.2542 14.3749 11.0677 14.3749 10.8376C14.3749 10.6074 14.1884 10.4209 13.9582 10.4209C13.7281 10.4209 13.5416 10.6074 13.5416 10.8376C13.5416 11.0677 13.7281 11.2542 13.9582 11.2542Z" stroke="white" stroke-width="1.25" stroke-linecap="round" stroke-linejoin="round"/>
<path d="M17.2915 17.9209C17.5217 17.9209 17.7082 17.7343 17.7082 17.5042C17.7082 17.2741 17.5217 17.0875 17.2915 17.0875C17.0614 17.0875 16.8749 17.2741 16.8749 17.5042C16.8749 17.7343 17.0614 17.9209 17.2915 17.9209Z" stroke="white" stroke-width="1.25" stroke-linecap="round" stroke-linejoin="round"/>
<path d="M17.2915 7.08748C17.5217 7.08748 17.7082 6.90094 17.7082 6.67082C17.7082 6.4407 17.5217 6.25415 17.2915 6.25415C17.0614 6.25415 16.8749 6.4407 16.8749 6.67082C16.8749 6.90094 17.0614 7.08748 17.2915 7.08748Z" stroke="white" stroke-width="1.25" stroke-linecap="round" stroke-linejoin="round"/>
</svg>
