<svg width="20" height="20" viewBox="0 0 20 20" fill="none" xmlns="http://www.w3.org/2000/svg">
<path d="M5.62469 2.49878V4.37378M14.3747 2.49878V4.37378M2.49969 15.6238V6.24878C2.49969 5.7515 2.69724 5.27458 3.04887 4.92295C3.4005 4.57132 3.87741 4.37378 4.37469 4.37378H15.6247C16.122 4.37378 16.5989 4.57132 16.9505 4.92295C17.3022 5.27458 17.4997 5.7515 17.4997 6.24878V15.6238M2.49969 15.6238C2.49969 16.1211 2.69724 16.598 3.04887 16.9496C3.4005 17.3012 3.87741 17.4988 4.37469 17.4988H15.6247C16.122 17.4988 16.5989 17.3012 16.9505 16.9496C17.3022 16.598 17.4997 16.1211 17.4997 15.6238M2.49969 15.6238V9.37378C2.49969 8.8765 2.69724 8.39958 3.04887 8.04795C3.4005 7.69632 3.87741 7.49878 4.37469 7.49878H15.6247C16.122 7.49878 16.5989 7.69632 16.9505 8.04795C17.3022 8.39958 17.4997 8.8765 17.4997 9.37378V15.6238" stroke="white" stroke-width="1.25" stroke-linecap="round" stroke-linejoin="round"/>
</svg>
