<svg width="24" height="24" viewBox="0 0 24 24" fill="none" xmlns="http://www.w3.org/2000/svg">
<path d="M2.24939 13.4985H6.10939C6.52719 13.4986 6.9367 13.6151 7.29206 13.8348C7.64742 14.0545 7.93459 14.3688 8.12139 14.7425L8.37739 15.2545C8.56427 15.6284 8.85159 15.9428 9.20714 16.1625C9.56269 16.3823 9.97242 16.4986 10.3904 16.4985H13.6084C14.0264 16.4986 14.4361 16.3823 14.7916 16.1625C15.1472 15.9428 15.4345 15.6284 15.6214 15.2545L15.8774 14.7425C16.0643 14.3687 16.3516 14.0543 16.7071 13.8345C17.0627 13.6148 17.4724 13.4985 17.8904 13.4985H21.7494M2.24939 13.8365V17.9985C2.24939 18.5953 2.48644 19.1676 2.9084 19.5895C3.33036 20.0115 3.90265 20.2485 4.49939 20.2485H19.4994C20.0961 20.2485 20.6684 20.0115 21.0904 19.5895C21.5123 19.1676 21.7494 18.5953 21.7494 17.9985V13.8365C21.7494 13.6125 21.7154 13.3895 21.6494 13.1755L19.2394 5.33653C19.0979 4.87678 18.8127 4.47448 18.4257 4.18868C18.0388 3.90288 17.5704 3.74862 17.0894 3.74854H6.91039C6.42934 3.74862 5.96098 3.90288 5.57403 4.18868C5.18709 4.47448 4.90193 4.87678 4.76039 5.33653L2.34939 13.1755C2.28333 13.3897 2.24962 13.6125 2.24939 13.8365Z" stroke="white" stroke-width="1.5" stroke-linecap="round" stroke-linejoin="round"/>
</svg>
