<svg width="20" height="20" viewBox="0 0 20 20" fill="none" xmlns="http://www.w3.org/2000/svg">
<path d="M6.24957 6.87384H13.7496M6.24957 9.37384H9.99957M1.87457 10.6322C1.87457 11.9655 2.81041 13.1272 4.13041 13.3213C5.07124 13.4597 6.02207 13.5655 6.98291 13.6372C7.27457 13.6588 7.54124 13.8122 7.70374 14.0547L9.99957 17.4988L12.2954 14.0547C12.3759 13.9349 12.4827 13.835 12.6076 13.7627C12.7325 13.6904 12.8723 13.6474 13.0162 13.6372C13.9705 13.5659 14.922 13.4606 15.8687 13.3213C17.1887 13.1272 18.1246 11.9663 18.1246 10.6313V5.61634C18.1246 4.28134 17.1887 3.12051 15.8687 2.92634C13.9254 2.6411 11.9638 2.49822 9.99957 2.49884C8.00624 2.49884 6.04624 2.64468 4.13041 2.92634C2.81041 3.12051 1.87457 4.28218 1.87457 5.61634V10.6313V10.6322Z" stroke="white" stroke-width="1.25" stroke-linecap="round" stroke-linejoin="round"/>
</svg>
