<svg width="20" height="20" viewBox="0 0 20 20" fill="none" xmlns="http://www.w3.org/2000/svg">
<path d="M14.9996 6.24878V8.74878M14.9996 8.74878V11.2488M14.9996 8.74878H17.4996M14.9996 8.74878H12.4996M10.6246 5.31128C10.6246 6.0572 10.3283 6.77257 9.80081 7.30002C9.27336 7.82746 8.55799 8.12378 7.81207 8.12378C7.06615 8.12378 6.35078 7.82746 5.82333 7.30002C5.29589 6.77257 4.99957 6.0572 4.99957 5.31128C4.99957 4.56536 5.29589 3.84999 5.82333 3.32254C6.35078 2.7951 7.06615 2.49878 7.81207 2.49878C8.55799 2.49878 9.27336 2.7951 9.80081 3.32254C10.3283 3.84999 10.6246 4.56536 10.6246 5.31128ZM2.49957 16.0279V15.9363C2.49957 14.5273 3.05928 13.1761 4.05557 12.1798C5.05185 11.1835 6.40311 10.6238 7.81207 10.6238C9.22104 10.6238 10.5723 11.1835 11.5686 12.1798C12.5649 13.1761 13.1246 14.5273 13.1246 15.9363V16.0271C11.5208 16.993 9.68342 17.5019 7.81124 17.4988C5.86874 17.4988 4.05124 16.9613 2.49957 16.0271V16.0279Z" stroke="white" stroke-width="1.25" stroke-linecap="round" stroke-linejoin="round"/>
</svg>
