<svg width="20" height="20" viewBox="0 0 20 20" fill="none" xmlns="http://www.w3.org/2000/svg">
<path d="M9.16624 4.58209C11.7007 4.64738 14.1778 3.82168 16.1662 2.24876C16.29 2.1559 16.4373 2.09936 16.5914 2.08546C16.7455 2.07156 16.9005 2.10086 17.0389 2.17007C17.1773 2.23928 17.2938 2.34567 17.3751 2.47732C17.4565 2.60896 17.4996 2.76067 17.4996 2.91543V12.9154C17.4996 13.0702 17.4565 13.2219 17.3751 13.3535C17.2938 13.4852 17.1773 13.5916 17.0389 13.6608C16.9005 13.73 16.7455 13.7593 16.5914 13.7454C16.4373 13.7315 16.29 13.6749 16.1662 13.5821C14.1778 12.0092 11.7007 11.1835 9.16624 11.2488H4.16624C3.72421 11.2488 3.30029 11.0732 2.98773 10.7606C2.67517 10.448 2.49957 10.0241 2.49957 9.58209V6.24876C2.49957 5.80673 2.67517 5.38281 2.98773 5.07025C3.30029 4.75769 3.72421 4.58209 4.16624 4.58209H9.16624Z" stroke="white" stroke-width="1.25" stroke-linecap="round" stroke-linejoin="round"/>
<path d="M4.99957 11.2488C4.99957 13.4125 5.70135 15.5178 6.99957 17.2488C7.26479 17.6024 7.65962 17.8362 8.0972 17.8987C8.53479 17.9612 8.97928 17.8473 9.33291 17.5821C9.68653 17.3169 9.92031 16.9221 9.98282 16.4845C10.0453 16.0469 9.93146 15.6024 9.66624 15.2488C8.80076 14.0948 8.33291 12.6912 8.33291 11.2488" stroke="white" stroke-width="1.25" stroke-linecap="round" stroke-linejoin="round"/>
<path d="M6.66626 4.58209V11.2488" stroke="white" stroke-width="1.25" stroke-linecap="round" stroke-linejoin="round"/>
</svg>
