<svg width="20" height="20" viewBox="0 0 20 20" fill="none" xmlns="http://www.w3.org/2000/svg">
<path d="M4.99961 18.3321C4.55759 18.3321 4.13366 18.1565 3.8211 17.8439C3.50854 17.5314 3.33295 17.1074 3.33295 16.6654V3.33207C3.33295 2.89005 3.50854 2.46612 3.8211 2.15356C4.13366 1.841 4.55759 1.66541 4.99961 1.66541H11.6663C11.9301 1.66498 12.1913 1.71674 12.4351 1.81772C12.6788 1.91869 12.9001 2.06687 13.0863 2.25374L16.0763 5.24374C16.2636 5.43 16.4123 5.65153 16.5135 5.89554C16.6148 6.13956 16.6667 6.40122 16.6663 6.66541V16.6654C16.6663 17.1074 16.4907 17.5314 16.1781 17.8439C15.8656 18.1565 15.4416 18.3321 14.9996 18.3321H4.99961Z" stroke="white" stroke-width="1.25" stroke-linecap="round" stroke-linejoin="round"/>
<path d="M11.6663 1.66541V5.83207C11.6663 6.05309 11.7541 6.26505 11.9103 6.42133C12.0666 6.57761 12.2786 6.66541 12.4996 6.66541H16.6663" stroke="white" stroke-width="1.25" stroke-linecap="round" stroke-linejoin="round"/>
<path d="M7.49957 12.4988L9.16624 14.1655L12.4996 10.8322" stroke="white" stroke-width="1.25" stroke-linecap="round" stroke-linejoin="round"/>
</svg>
