<svg width="20" height="20" viewBox="0 0 20 20" fill="none" xmlns="http://www.w3.org/2000/svg">
<path d="M7.99436 3.28211C8.06936 2.83045 8.46102 2.49878 8.91936 2.49878H11.0802C11.5385 2.49878 11.9302 2.83045 12.0052 3.28211L12.1827 4.34961C12.2352 4.66128 12.4435 4.92128 12.7202 5.07461C12.7819 5.10795 12.8427 5.14378 12.9035 5.18045C13.1744 5.34378 13.5035 5.39461 13.7994 5.28378L14.8135 4.90378C15.0214 4.82562 15.2502 4.82376 15.4593 4.89854C15.6683 4.97332 15.8441 5.11987 15.9552 5.31211L17.0352 7.18461C17.1461 7.37687 17.1852 7.60222 17.1455 7.82058C17.1058 8.03895 16.9899 8.23615 16.8185 8.37711L15.9827 9.06628C15.7385 9.26711 15.6177 9.57711 15.6244 9.89295C15.6255 9.96377 15.6255 10.0346 15.6244 10.1054C15.6177 10.4204 15.7385 10.7304 15.9827 10.9313L16.8194 11.6204C17.1727 11.9121 17.2644 12.4163 17.036 12.8121L15.9544 14.6846C15.8434 14.8768 15.6679 15.0234 15.459 15.0983C15.2501 15.1733 15.0213 15.1716 14.8135 15.0938L13.7994 14.7138C13.5035 14.6029 13.1744 14.6538 12.9027 14.8171C12.8423 14.8539 12.7812 14.8894 12.7194 14.9238C12.4435 15.0763 12.2352 15.3363 12.1827 15.6479L12.0052 16.7154C11.9302 17.1679 11.5385 17.4988 11.0802 17.4988H8.91852C8.46019 17.4988 8.06936 17.1671 7.99352 16.7154L7.81602 15.6479C7.76436 15.3363 7.55602 15.0763 7.27936 14.9229C7.21756 14.8889 7.15644 14.8536 7.09602 14.8171C6.82519 14.6538 6.49602 14.6029 6.19936 14.7138L5.18519 15.0938C4.97746 15.1717 4.74883 15.1735 4.53994 15.0987C4.33105 15.0239 4.15545 14.8775 4.04436 14.6854L2.96352 12.8129C2.85264 12.6207 2.81356 12.3953 2.85324 12.177C2.89291 11.9586 3.00877 11.7614 3.18019 11.6204L4.01686 10.9313C4.26019 10.7313 4.38102 10.4204 4.37519 10.1054C4.37389 10.0346 4.37389 9.96377 4.37519 9.89295C4.38102 9.57628 4.26019 9.26711 4.01686 9.06628L3.18019 8.37711C3.00897 8.23619 2.89325 8.03914 2.85358 7.82097C2.81392 7.60279 2.85287 7.37762 2.96352 7.18545L4.04436 5.31295C4.15535 5.12056 4.33103 4.97383 4.54012 4.89889C4.7492 4.82396 4.9781 4.82569 5.18602 4.90378L6.19936 5.28378C6.49602 5.39461 6.82519 5.34378 7.09602 5.18045C7.15602 5.14378 7.21769 5.10878 7.27936 5.07378C7.55602 4.92128 7.76436 4.66128 7.81602 4.34961L7.99436 3.28211Z" stroke="white" stroke-width="1.25" stroke-linecap="round" stroke-linejoin="round"/>
<path d="M12.4994 9.99878C12.4994 10.6618 12.236 11.2977 11.7672 11.7665C11.2983 12.2354 10.6624 12.4988 9.99939 12.4988C9.33635 12.4988 8.70046 12.2354 8.23162 11.7665C7.76278 11.2977 7.49939 10.6618 7.49939 9.99878C7.49939 9.33574 7.76278 8.69985 8.23162 8.23101C8.70046 7.76217 9.33635 7.49878 9.99939 7.49878C10.6624 7.49878 11.2983 7.76217 11.7672 8.23101C12.236 8.69985 12.4994 9.33574 12.4994 9.99878Z" stroke="white" stroke-width="1.25" stroke-linecap="round" stroke-linejoin="round"/>
</svg>
